<?xml version="1.0" encoding="UTF-8" standalone="no"?>
<!DOCTYPE svg PUBLIC "-//W3C//DTD SVG 20010904//EN"
              "http://www.w3.org/TR/2001/REC-SVG-20010904/DTD/svg10.dtd">

<svg xmlns="http://www.w3.org/2000/svg"
     width="0.853333in" height="0.853333in"
     viewBox="0 0 256 256">
  <path id="Selection"
        fill="none" stroke="black" stroke-width="1"
        d="M 67.00,76.00
           C 63.14,65.66 66.84,63.42 77.00,60.90
             85.21,58.86 100.39,57.89 109.00,58.00
             117.34,58.12 117.79,60.39 118.00,70.00
             118.00,70.00 85.00,71.44 85.00,71.44
             85.00,71.44 67.00,76.00 67.00,76.00 Z
           M 143.00,68.00
           C 143.55,60.03 148.98,59.61 156.00,59.09
             174.43,57.71 168.75,57.33 187.00,61.00
             187.37,63.83 188.98,69.98 186.40,71.97
             183.76,74.02 177.04,71.37 174.00,70.83
             157.51,66.76 158.61,70.72 146.00,70.83
             146.00,70.83 143.00,68.00 143.00,68.00 Z
           M 165.00,81.00
           C 165.00,81.00 170.00,81.00 170.00,81.00
             170.00,81.00 170.00,86.00 170.00,86.00
             170.00,86.00 165.00,86.00 165.00,86.00
             165.00,86.00 165.00,81.00 165.00,81.00 Z
           M 93.00,82.00
           C 93.00,82.00 98.00,82.00 98.00,82.00
             98.00,82.00 98.00,88.00 98.00,88.00
             98.00,88.00 93.00,88.00 93.00,88.00
             93.00,88.00 93.00,82.00 93.00,82.00 Z
           M 131.00,89.00
           C 132.72,89.06 134.84,88.90 136.30,89.99
             138.07,91.33 138.82,94.93 139.51,97.00
             139.51,97.00 145.59,116.00 145.59,116.00
             145.59,116.00 153.00,140.00 153.00,140.00
             153.81,142.50 155.65,146.95 153.99,149.35
             151.67,152.72 136.24,153.96 132.00,154.00
             132.00,154.00 132.00,148.00 132.00,148.00
             132.00,148.00 148.00,146.00 148.00,146.00
             148.00,146.00 137.98,115.00 137.98,115.00
             135.40,106.71 131.42,97.67 131.00,89.00 Z
           M 91.00,181.00
           C 91.20,172.19 93.14,166.34 103.00,166.00
             103.00,166.00 97.00,181.00 97.00,181.00
             97.00,181.00 91.00,181.00 91.00,181.00 Z
           M 166.00,172.00
           C 172.57,172.09 173.76,172.11 174.00,179.00
             174.00,179.00 154.00,184.77 154.00,184.77
             143.10,186.97 130.02,186.14 119.00,184.77
             116.08,184.49 103.52,182.20 101.99,180.27
             100.89,178.87 101.05,176.67 101.00,175.00
             101.00,175.00 139.00,180.00 139.00,180.00
             139.00,180.00 166.00,176.00 166.00,176.00
             166.00,176.00 166.00,172.00 166.00,172.00 Z" />
</svg>
