<svg version="1.1" xmlns="http://www.w3.org/2000/svg" viewBox="0 0 648 299" width="648" height="299" filter="invert(93%) hue-rotate(180deg)"><!-- svg-source:excalidraw --><metadata></metadata><defs><style class="style-fonts">
      </style></defs><g stroke-linecap="round" transform="translate(81 137) rotate(0 27 27.5)"><path d="M3.69 12.48 C3.69 12.48, 3.69 12.48, 3.69 12.48 M3.69 12.48 C3.69 12.48, 3.69 12.48, 3.69 12.48 M0.54 28.3 C8.18 23.53, 13.34 16.28, 23.51 1.88 M0.54 28.3 C4.73 23.74, 11.18 17.09, 23.51 1.88 M3.3 37.32 C13.63 25.55, 25.84 9.57, 34.14 1.85 M3.3 37.32 C10.91 29.28, 17.01 21.65, 34.14 1.85 M7.37 44.83 C17.95 32.29, 27.19 22.73, 41.49 5.59 M7.37 44.83 C17.94 30.89, 30.85 17.69, 41.49 5.59 M13.41 50.08 C26.56 36.01, 36.1 22.3, 47.52 10.84 M13.41 50.08 C24.59 37.96, 34.99 24.39, 47.52 10.84 M20.76 53.82 C34.73 39.26, 43.41 26.44, 51.59 18.35 M20.76 53.82 C32.56 41.66, 42.9 27.81, 51.59 18.35 M30.73 54.54 C38.19 46.8, 42.37 42.64, 53.69 28.13 M30.73 54.54 C38.18 44.78, 46.79 36.52, 53.69 28.13" stroke="#1e1e1e" stroke-width="1" fill="none"></path><path d="M17.55 2.4 C22.88 0.18, 31.79 -0.73, 37.34 1.21 C42.88 3.16, 48 8.79, 50.84 14.09 C53.67 19.38, 55.38 27.35, 54.37 33 C53.35 38.64, 49.38 44.12, 44.75 47.94 C40.12 51.77, 32.42 55.85, 26.58 55.93 C20.75 56.01, 14.14 52.47, 9.73 48.4 C5.33 44.33, 1.16 37.48, 0.14 31.51 C-0.88 25.54, -0.01 17.76, 3.61 12.57 C7.24 7.39, 18.44 2.36, 21.89 0.41 C25.35 -1.53, 24.18 0.54, 24.35 0.91 M21.69 -0.42 C27.04 -2.2, 34.52 0.14, 39.65 2.87 C44.78 5.61, 50.28 10.57, 52.46 15.98 C54.63 21.38, 54.36 29.66, 52.72 35.32 C51.08 40.98, 47.24 46.58, 42.62 49.95 C38 53.32, 30.71 56.35, 24.98 55.53 C19.25 54.71, 12.5 49.53, 8.22 45.04 C3.95 40.55, -0.06 34.43, -0.69 28.59 C-1.31 22.76, 0.78 14.47, 4.47 10.03 C8.16 5.6, 18.73 3.38, 21.46 2.01 C24.19 0.63, 20.76 1.64, 20.85 1.79" stroke="#1e1e1e" stroke-width="2" fill="none"></path></g><g stroke-linecap="round" transform="translate(183 104.5) rotate(0 19.5 20)"><path d="M4.8 6.82 C4.8 6.82, 4.8 6.82, 4.8 6.82 M4.8 6.82 C4.8 6.82, 4.8 6.82, 4.8 6.82 M1.66 22.64 C7.12 16.39, 13.07 10.4, 20.02 1.51 M1.66 22.64 C7.21 16.55, 12.65 9.94, 20.02 1.51 M4.41 31.66 C10.21 26.74, 14.1 19.79, 28.69 3.74 M4.41 31.66 C9.41 25.92, 14.9 20.11, 28.69 3.74 M10.45 36.91 C18.01 29.16, 25.2 21.26, 34.72 8.99 M10.45 36.91 C15.89 31.41, 20.56 25.16, 34.72 8.99 M18.46 39.89 C23.51 33.43, 29.75 26.62, 38.79 16.5 M18.46 39.89 C24.13 33.06, 30.5 26.1, 38.79 16.5" stroke="#1e1e1e" stroke-width="1" fill="none"></path><path d="M17.6 0.04 C21.4 -0.59, 26.53 1.38, 29.99 3.71 C33.45 6.04, 37.1 10, 38.37 14.03 C39.63 18.05, 39.21 23.9, 37.58 27.85 C35.95 31.81, 32.4 35.76, 28.59 37.73 C24.78 39.7, 18.89 40.69, 14.75 39.67 C10.61 38.65, 6.17 35.12, 3.75 31.61 C1.32 28.1, -0.03 22.8, 0.2 18.61 C0.43 14.42, 2.12 9.64, 5.11 6.47 C8.11 3.3, 15.87 0.67, 18.17 -0.4 C20.47 -1.46, 18.86 -0.38, 18.91 0.1 M14.76 -0.16 C18.59 -1.15, 24.75 0.68, 28.56 2.89 C32.38 5.11, 36 9.29, 37.65 13.13 C39.29 16.97, 39.66 22.06, 38.42 25.91 C37.19 29.76, 33.74 33.98, 30.22 36.23 C26.71 38.47, 21.46 39.87, 17.33 39.38 C13.2 38.89, 8.21 36.29, 5.42 33.27 C2.64 30.24, 0.92 25.5, 0.63 21.2 C0.34 16.9, 1.25 10.8, 3.68 7.47 C6.1 4.13, 13.19 2.19, 15.18 1.2 C17.18 0.21, 15.64 1.25, 15.65 1.53" stroke="#1e1e1e" stroke-width="2" fill="none"></path></g><g stroke-linecap="round" transform="translate(10 223.5) rotate(0 25 25)"><path d="M5.22 9.84 C5.22 9.84, 5.22 9.84, 5.22 9.84 M5.22 9.84 C5.22 9.84, 5.22 9.84, 5.22 9.84 M0.76 27.16 C7.44 20.82, 13.76 13.89, 22.41 2.26 M0.76 27.16 C5.25 21.97, 12.07 14.83, 22.41 2.26 M4.18 35.43 C12.21 25.71, 21.26 17.71, 31.07 4.49 M4.18 35.43 C15.37 24.17, 25.01 12.65, 31.07 4.49 M8.24 42.94 C19.96 31.54, 32.26 17.09, 40.39 5.96 M8.24 42.94 C18.13 31.26, 27.76 20.58, 40.39 5.96 M14.94 47.44 C27.01 33.85, 36.88 22.92, 45.77 11.96 M14.94 47.44 C27.03 34.8, 37.79 21.57, 45.77 11.96 M22.29 51.18 C29.74 40.51, 39.14 32.44, 51.16 17.97 M22.29 51.18 C28.94 43.94, 34.42 37.78, 51.16 17.97 M34.89 48.88 C38.04 43.27, 43.15 41.96, 51.94 29.25 M34.89 48.88 C42.11 41.95, 47.03 34.92, 51.94 29.25" stroke="#1e1e1e" stroke-width="1" fill="none"></path><path d="M19.96 0.75 C24.74 -0.48, 32.47 1.32, 37.17 3.78 C41.87 6.25, 46.17 10.68, 48.14 15.54 C50.12 20.41, 50.85 27.76, 49 32.97 C47.15 38.18, 41.8 44.1, 37.04 46.83 C32.28 49.55, 25.54 50.14, 20.43 49.33 C15.32 48.52, 9.94 45.84, 6.38 41.98 C2.81 38.11, -0.7 31.44, -0.94 26.13 C-1.17 20.82, 0.66 14.6, 4.99 10.11 C9.31 5.61, 21.19 0.77, 25.01 -0.84 C28.82 -2.46, 28.13 0.01, 27.87 0.43 M26.38 0.7 C31.21 0.43, 37.04 2.96, 40.69 6.43 C44.33 9.9, 47.4 16.22, 48.25 21.51 C49.11 26.79, 48.3 33.45, 45.8 38.15 C43.29 42.85, 37.96 48.12, 33.21 49.71 C28.46 51.3, 22.37 49.8, 17.3 47.71 C12.23 45.63, 5.35 41.64, 2.77 37.21 C0.2 32.78, 0.6 26.53, 1.85 21.13 C3.1 15.73, 6.24 8.23, 10.26 4.82 C14.27 1.42, 23.36 1.57, 25.93 0.7 C28.5 -0.16, 25.69 -0.5, 25.65 -0.37" stroke="#1e1e1e" stroke-width="2" fill="none"></path></g><g stroke-linecap="round" transform="translate(45.72178991562441 44.75351132397532) rotate(1.8476102659945735 19.278210084375587 18.746488676024796)"><path d="M6.46 4.29 C6.46 4.29, 6.46 4.29, 6.46 4.29 M6.46 4.29 C6.46 4.29, 6.46 4.29, 6.46 4.29 M2 21.61 C7.78 13.25, 14.5 5.88, 20.37 0.48 M2 21.61 C8.41 13.73, 15.39 6.6, 20.37 0.48 M5.41 29.88 C12.63 22.24, 19.23 15.86, 28.37 3.46 M5.41 29.88 C14.19 19.42, 22.44 10.06, 28.37 3.46 M11.45 35.13 C19.67 25.46, 27.23 16.23, 34.41 8.71 M11.45 35.13 C16.27 29.81, 21.2 24.83, 34.41 8.71 M20.77 36.6 C25.67 31.33, 29.69 27.37, 39.14 15.47 M20.77 36.6 C27.31 28.86, 34.01 21.17, 39.14 15.47" stroke="#1e1e1e" stroke-width="1" fill="none"></path><path d="M18.75 0.2 C22.6 -0.13, 28.08 1.41, 31.36 3.87 C34.63 6.34, 37.63 10.96, 38.39 15 C39.15 19.03, 37.91 24.62, 35.91 28.08 C33.92 31.55, 30.18 34.48, 26.42 35.82 C22.65 37.15, 17.18 37.29, 13.3 36.11 C9.43 34.93, 5.41 32.15, 3.16 28.74 C0.92 25.34, -0.75 19.79, -0.17 15.69 C0.4 11.59, 3.33 6.75, 6.59 4.13 C9.85 1.52, 17 0.61, 19.4 0.01 C21.79 -0.6, 20.81 0.13, 20.95 0.49 M18.61 -0.41 C22.52 -0.79, 27.8 0.98, 31.14 3.52 C34.48 6.06, 37.83 10.94, 38.66 14.83 C39.48 18.72, 38.09 23.22, 36.11 26.86 C34.12 30.51, 30.43 34.95, 26.74 36.7 C23.05 38.45, 17.97 38.58, 13.96 37.39 C9.94 36.19, 4.89 32.94, 2.64 29.53 C0.39 26.12, -0.01 20.92, 0.48 16.91 C0.98 12.9, 2.76 8.2, 5.62 5.46 C8.47 2.73, 15.61 1.4, 17.63 0.48 C19.65 -0.43, 17.53 -0.27, 17.73 -0.01" stroke="#1e1e1e" stroke-width="2" fill="none"></path></g><g stroke-linecap="round" transform="translate(169 226.5) rotate(0 14 14.5)"><path d="M4.07 4.86 C4.07 4.86, 4.07 4.86, 4.07 4.86 M4.07 4.86 C4.07 4.86, 4.07 4.86, 4.07 4.86 M1.58 19.92 C6.69 14.43, 9.8 9.6, 17.32 1.81 M1.58 19.92 C7.85 13.19, 14.06 5.98, 17.32 1.81 M6.96 25.93 C13.91 19.15, 20.7 9.56, 24.02 6.3 M6.96 25.93 C12.04 20.34, 16.36 14.98, 24.02 6.3 M16.28 27.4 C18.86 24.3, 21.15 22.18, 26.78 15.33 M16.28 27.4 C20.5 22.72, 24.6 17.98, 26.78 15.33" stroke="#1e1e1e" stroke-width="1" fill="none"></path><path d="M12.76 -0.14 C15.68 -0.5, 20 1.18, 22.4 3.11 C24.79 5.03, 26.48 8.37, 27.12 11.41 C27.76 14.45, 27.42 18.68, 26.25 21.33 C25.08 23.98, 22.81 26.16, 20.12 27.32 C17.43 28.49, 13.13 29.17, 10.11 28.31 C7.09 27.46, 3.66 24.67, 1.99 22.18 C0.32 19.69, -0.32 16.31, 0.08 13.37 C0.47 10.43, 2.07 6.78, 4.35 4.54 C6.64 2.29, 12.13 0.67, 13.78 -0.11 C15.44 -0.89, 14.25 -0.37, 14.27 -0.16 M16.02 -0.3 C18.86 -0.27, 21.76 2.02, 23.88 4.38 C25.99 6.74, 28.38 10.82, 28.72 13.86 C29.05 16.91, 27.75 20.11, 25.92 22.63 C24.08 25.14, 20.7 28.23, 17.72 28.96 C14.75 29.69, 10.77 28.56, 8.07 27.02 C5.37 25.48, 2.68 22.57, 1.5 19.72 C0.33 16.86, 0.31 12.68, 1.04 9.89 C1.77 7.09, 3.43 4.48, 5.89 2.93 C8.34 1.38, 14.21 0.95, 15.78 0.58 C17.35 0.21, 15.38 0.57, 15.29 0.71" stroke="#1e1e1e" stroke-width="2" fill="none"></path></g><g stroke-linecap="round"><g transform="translate(185 128) rotate(0 -26.5 11.5)"><path d="M-0.77 -0.86 C-9.51 2.87, -43.12 17.75, -51.83 21.91 M1.03 1.3 C-7.82 5.18, -43.02 19.36, -52.17 22.87" stroke="#1e1e1e" stroke-width="2" fill="none"></path></g></g><mask></mask><g stroke-linecap="round"><g transform="translate(72 83) rotate(0 12 28)"><path d="M1.08 0.88 C5.07 10.04, 20.89 46.45, 24.59 55.61 M0.18 0.3 C4.01 9.56, 19.69 47.47, 23.95 56.94" stroke="#1e1e1e" stroke-width="2" fill="none"></path></g></g><mask></mask><g stroke-linecap="round"><g transform="translate(91 185) rotate(0 -21.5 21.5)"><path d="M-0.47 -0.04 C-7.72 6.89, -36.78 35.09, -43.92 42.15 M1.48 -1.1 C-5.36 5.91, -34.06 35.84, -41.69 43.23" stroke="#1e1e1e" stroke-width="2" fill="none"></path></g></g><mask></mask><g stroke-linecap="round"><g transform="translate(122 186) rotate(0 26 21)"><path d="M0.72 0.94 C9.43 8.19, 43.99 35.84, 52.59 42.62 M-0.37 0.39 C8.21 7.37, 43.27 33.76, 51.96 40.82" stroke="#1e1e1e" stroke-width="2" fill="none"></path></g></g><mask></mask><g stroke-linecap="round"><g transform="translate(201 104) rotate(0 -1.5 -6)"><path d="M-0.27 0.23 C-0.71 -1.66, -2.4 -9.56, -2.93 -11.59 M0.59 -0.13 C0.1 -2.15, -2.83 -10.48, -3.32 -12.34" stroke="#1e1e1e" stroke-width="2" fill="none"></path></g></g><mask></mask><g stroke-linecap="round"><g transform="translate(220 134) rotate(0 6 2)"><path d="M0.03 0.51 C2.03 1.16, 10.03 3.84, 12.06 4.34 M-0.62 0.3 C1.3 0.75, 9.56 2.96, 11.66 3.56" stroke="#1e1e1e" stroke-width="2" fill="none"></path></g></g><mask></mask><g stroke-linecap="round"><g transform="translate(192 143) rotate(0 -2 4)"><path d="M0.22 -0.03 C-0.41 1.25, -3.01 6.56, -3.7 7.86 M-0.09 -0.35 C-0.76 0.97, -3.16 6.85, -3.82 8.24" stroke="#1e1e1e" stroke-width="2" fill="none"></path></g></g><mask></mask><g stroke-linecap="round" transform="translate(195 80) rotate(0 3.5 4)"><path d="M2.11 0.5 C2.11 0.5, 2.11 0.5, 2.11 0.5 M2.11 0.5 C2.11 0.5, 2.11 0.5, 2.11 0.5" stroke="#1e1e1e" stroke-width="1" fill="none"></path><path d="M3.76 -0.05 C4.42 0.09, 5.49 0.91, 6.07 1.61 C6.64 2.31, 7.18 3.34, 7.2 4.13 C7.22 4.92, 6.68 5.71, 6.17 6.34 C5.67 6.97, 4.86 7.66, 4.16 7.91 C3.47 8.16, 2.64 8.22, 2.01 7.84 C1.38 7.45, 0.67 6.41, 0.38 5.59 C0.08 4.77, 0 3.69, 0.23 2.9 C0.47 2.12, 1.13 1.38, 1.78 0.88 C2.43 0.38, 3.77 0.03, 4.14 -0.09 C4.51 -0.2, 4.01 0.07, 3.98 0.2 M3.42 -0.2 C4.15 -0.25, 4.88 0, 5.4 0.62 C5.91 1.25, 6.25 2.59, 6.49 3.56 C6.74 4.53, 7.27 5.71, 6.88 6.43 C6.5 7.15, 5.06 7.71, 4.21 7.87 C3.35 8.03, 2.31 7.75, 1.76 7.37 C1.21 7, 1.23 6.37, 0.9 5.63 C0.58 4.9, -0.19 3.76, -0.2 2.96 C-0.2 2.17, 0.18 1.38, 0.87 0.87 C1.56 0.36, 3.56 0.02, 3.94 -0.09 C4.32 -0.19, 3.23 0.16, 3.14 0.24" stroke="#1e1e1e" stroke-width="2" fill="none"></path></g><g stroke-linecap="round" transform="translate(230 135) rotate(0 2 2.5)"><path d="M0.05 1.37 C0.05 1.37, 0.05 1.37, 0.05 1.37 M0.05 1.37 C0.05 1.37, 0.05 1.37, 0.05 1.37" stroke="#1e1e1e" stroke-width="1" fill="none"></path><path d="M2.22 0.27 C2.63 0.21, 3.16 0.19, 3.44 0.51 C3.71 0.84, 3.82 1.62, 3.86 2.21 C3.9 2.81, 3.87 3.69, 3.67 4.08 C3.47 4.47, 3.09 4.44, 2.65 4.55 C2.22 4.66, 1.5 4.91, 1.07 4.72 C0.65 4.52, 0.31 3.91, 0.1 3.4 C-0.11 2.89, -0.33 2.1, -0.2 1.66 C-0.07 1.23, 0.46 1.11, 0.89 0.78 C1.32 0.46, 2.15 -0.1, 2.37 -0.28 C2.6 -0.45, 2.32 -0.4, 2.24 -0.26 M1.37 0 C1.88 -0.06, 3.15 0.02, 3.5 0.35 C3.86 0.68, 3.47 1.45, 3.5 1.98 C3.53 2.5, 3.79 3, 3.69 3.5 C3.59 4, 3.23 4.77, 2.91 4.96 C2.59 5.15, 2.22 4.76, 1.78 4.66 C1.34 4.56, 0.61 4.84, 0.27 4.38 C-0.07 3.91, -0.3 2.5, -0.27 1.86 C-0.24 1.23, 0.09 0.93, 0.43 0.58 C0.77 0.24, 1.53 -0.08, 1.78 -0.2 C2.02 -0.33, 1.9 -0.31, 1.88 -0.18" stroke="#1e1e1e" stroke-width="2" fill="none"></path></g><g stroke-linecap="round" transform="translate(176 150) rotate(0 9 9.5)"><path d="M2.71 2.35 C2.71 2.35, 2.71 2.35, 2.71 2.35 M2.71 2.35 C2.71 2.35, 2.71 2.35, 2.71 2.35 M2.84 14.39 C5.14 11.42, 7.96 7.15, 13.34 2.32 M2.84 14.39 C6.87 9.77, 10.8 5.67, 13.34 2.32 M9.53 18.89 C12.75 15.7, 16.28 11.69, 18.06 9.08 M9.53 18.89 C12.59 15.45, 15.46 12.47, 18.06 9.08" stroke="#1e1e1e" stroke-width="1" fill="none"></path><path d="M9.12 -0.19 C10.96 -0.28, 13.19 0.62, 14.58 2.04 C15.97 3.46, 17.03 6.17, 17.44 8.3 C17.85 10.44, 18.05 13.13, 17.05 14.85 C16.04 16.57, 13.38 18.08, 11.4 18.6 C9.43 19.12, 6.84 18.79, 5.2 17.97 C3.55 17.16, 2.42 15.48, 1.54 13.71 C0.66 11.93, -0.32 9.26, -0.08 7.31 C0.16 5.37, 1.29 3.26, 2.99 2.03 C4.69 0.8, 8.99 0.21, 10.12 -0.05 C11.26 -0.32, 9.88 0.26, 9.78 0.43 M8.82 -0.16 C10.7 -0.37, 14.17 0.62, 15.57 1.95 C16.97 3.29, 17.08 5.79, 17.23 7.87 C17.37 9.94, 17.37 12.61, 16.43 14.4 C15.48 16.19, 13.4 17.99, 11.56 18.62 C9.71 19.24, 7.02 18.79, 5.36 18.15 C3.7 17.51, 2.39 16.58, 1.6 14.79 C0.81 13, 0.3 9.43, 0.62 7.41 C0.94 5.4, 2.15 3.82, 3.53 2.71 C4.91 1.59, 8.09 1.15, 8.92 0.73 C9.75 0.32, 8.36 0.21, 8.52 0.23" stroke="#1e1e1e" stroke-width="2" fill="none"></path></g><g stroke-linecap="round" transform="translate(466 110.87352461564365) rotate(0 27 27.5)"><path d="M9.94 4.67 C9.94 4.67, 9.94 4.67, 9.94 4.67 M9.94 4.67 C9.94 4.67, 9.94 4.67, 9.94 4.67 M1.54 26.52 C9.61 18.88, 17.1 8.77, 23.85 0.86 M1.54 26.52 C7.29 20.75, 13.5 13.01, 23.85 0.86 M2.99 37.05 C11.62 27.64, 22.78 16.29, 33.17 2.33 M2.99 37.05 C12.33 26.08, 22.72 14.7, 33.17 2.33 M7.06 44.56 C18.13 32.57, 28.2 17.5, 41.17 5.32 M7.06 44.56 C20.77 30.21, 32.1 14.51, 41.17 5.32 M13.1 49.81 C26.92 34.25, 38.51 17.31, 47.21 10.57 M13.1 49.81 C24.07 36.83, 35.89 23.01, 47.21 10.57 M19.79 54.3 C27.91 42.96, 39.62 31.14, 51.28 18.08 M19.79 54.3 C31.92 39.75, 43.21 26.14, 51.28 18.08 M30.42 54.27 C36.03 46.28, 45.46 35.8, 54.04 27.1 M30.42 54.27 C35.29 47.2, 41.24 41.31, 54.04 27.1" stroke="#1e1e1e" stroke-width="1" fill="none"></path><path d="M28.75 -0.31 C34.39 -0.38, 41 3.47, 45.24 7.62 C49.47 11.77, 53.24 18.76, 54.17 24.6 C55.1 30.43, 53.82 37.67, 50.82 42.61 C47.82 47.55, 41.85 52.42, 36.18 54.24 C30.51 56.07, 22.31 55.84, 16.81 53.57 C11.3 51.3, 5.93 45.86, 3.16 40.63 C0.38 35.4, -0.95 28.15, 0.16 22.18 C1.27 16.21, 4.11 8.32, 9.82 4.8 C15.53 1.28, 29.27 0.97, 34.43 1.05 C39.58 1.13, 40.64 4.94, 40.76 5.28 M22.3 -0.74 C27.79 -1.83, 35.58 -0.02, 40.8 3.34 C46.02 6.71, 51.5 13.67, 53.61 19.44 C55.72 25.2, 55.66 32.48, 53.48 37.94 C51.3 43.4, 45.78 49.44, 40.56 52.18 C35.33 54.92, 28 55.72, 22.14 54.4 C16.27 53.08, 9.2 48.77, 5.36 44.27 C1.51 39.76, -0.99 33.16, -0.93 27.36 C-0.88 21.55, 1.73 14.09, 5.7 9.43 C9.67 4.77, 20.14 0.68, 22.89 -0.6 C25.65 -1.89, 22.28 1.05, 22.23 1.73" stroke="#1e1e1e" stroke-width="2" fill="none"></path></g><g stroke-linecap="round" transform="translate(568 78.37352461564365) rotate(0 19.5 20)"><path d="M6.71 4.51 C6.71 4.51, 6.71 4.51, 6.71 4.51 M6.71 4.51 C6.71 4.51, 6.71 4.51, 6.71 4.51 M1.6 22.59 C9.18 14.78, 15.53 5.74, 20.62 0.7 M1.6 22.59 C8.96 14.92, 15.33 6.5, 20.62 0.7 M4.35 31.61 C11.52 24.83, 17.71 16.28, 28.63 3.69 M4.35 31.61 C13.16 21.9, 21.76 11.64, 28.63 3.69 M10.39 36.86 C18.9 26.94, 25.85 19.52, 34.67 8.93 M10.39 36.86 C19.54 26.23, 28.01 16.82, 34.67 8.93 M19.05 39.09 C25.28 31.2, 30.81 24.8, 38.74 16.45 M19.05 39.09 C23.2 34.19, 26.98 29.83, 38.74 16.45" stroke="#1e1e1e" stroke-width="1" fill="none"></path><path d="M19.97 0.26 C23.92 0.19, 29.35 2.56, 32.56 5.38 C35.77 8.2, 38.57 12.97, 39.25 17.19 C39.92 21.4, 38.87 26.97, 36.63 30.65 C34.38 34.32, 29.8 37.87, 25.77 39.23 C21.75 40.59, 16.39 40.35, 12.46 38.78 C8.53 37.22, 4.26 33.72, 2.19 29.86 C0.13 26, -0.72 19.88, 0.07 15.62 C0.86 11.36, 3.57 6.86, 6.9 4.29 C10.23 1.72, 17.66 0.9, 20.05 0.19 C22.44 -0.51, 21.25 -0.2, 21.27 0.05 M15.42 0.08 C19.39 -0.84, 25.44 0.63, 29.25 2.75 C33.06 4.88, 36.77 8.85, 38.28 12.81 C39.79 16.78, 39.7 22.52, 38.32 26.55 C36.93 30.57, 33.63 34.81, 29.98 36.98 C26.33 39.15, 20.67 40.15, 16.42 39.58 C12.17 39.01, 7.3 36.72, 4.48 33.56 C1.66 30.41, -0.45 25.05, -0.5 20.65 C-0.55 16.25, 1.56 10.45, 4.17 7.15 C6.78 3.86, 13.3 1.88, 15.15 0.86 C16.99 -0.16, 15.09 0.89, 15.24 1.04" stroke="#1e1e1e" stroke-width="2" fill="none"></path></g><g stroke-linecap="round" transform="translate(404.49545425526276 208.72306712465024) rotate(350.4703545702447 25 25)"><path d="M5.55 8.8 C5.55 8.8, 5.55 8.8, 5.55 8.8 M5.55 8.8 C5.55 8.8, 5.55 8.8, 5.55 8.8 M1.09 26.12 C7.23 19.32, 15.05 10.24, 22.08 1.97 M1.09 26.12 C8.74 16.94, 16.11 7.92, 22.08 1.97 M4.5 34.39 C13.53 25.36, 22.45 13.72, 31.4 3.45 M4.5 34.39 C13.08 24.99, 21.46 14.89, 31.4 3.45 M7.92 42.66 C21.6 30.51, 32.71 17.68, 40.06 5.68 M7.92 42.66 C21.04 29.12, 32.14 15.41, 40.06 5.68 M14.61 47.15 C24.39 35.42, 30.7 25.28, 45.45 11.68 M14.61 47.15 C24.01 35.75, 33.57 25.35, 45.45 11.68 M21.31 51.65 C30.67 42.1, 35.32 33.64, 50.17 18.44 M21.31 51.65 C27.95 45.28, 34.66 36.78, 50.17 18.44 M33.9 49.35 C38.08 44.59, 45.09 35.84, 49.65 31.23 M33.9 49.35 C38.52 44.43, 41.74 40.67, 49.65 31.23" stroke="#1e1e1e" stroke-width="1" fill="none"></path><path d="M21.37 1.19 C26.48 0.05, 34.02 1.3, 38.7 3.98 C43.39 6.67, 47.87 12.22, 49.49 17.29 C51.1 22.36, 50.41 29.45, 48.37 34.42 C46.33 39.38, 42.01 44.47, 37.27 47.07 C32.53 49.67, 25.3 51.23, 19.93 50.03 C14.56 48.82, 8.51 44.12, 5.06 39.86 C1.61 35.6, -0.8 29.6, -0.75 24.46 C-0.71 19.33, 0.64 13.26, 5.33 9.05 C10.02 4.85, 22.98 0.61, 27.37 -0.75 C31.76 -2.1, 31.97 0.44, 31.68 0.92 M17.46 2.25 C22.4 0.39, 29.9 0.14, 34.86 1.94 C39.83 3.73, 44.71 8.48, 47.24 13.03 C49.78 17.59, 51.18 24.14, 50.06 29.26 C48.94 34.37, 44.86 40.18, 40.52 43.72 C36.19 47.26, 29.51 50.41, 24.08 50.5 C18.64 50.59, 11.88 47.93, 7.92 44.26 C3.97 40.58, 1.24 33.59, 0.35 28.44 C-0.55 23.3, 0 17.81, 2.56 13.39 C5.12 8.98, 13.31 4.08, 15.69 1.98 C18.07 -0.12, 16.6 0.35, 16.85 0.79" stroke="#1e1e1e" stroke-width="2" fill="none"></path></g><g stroke-linecap="round" transform="translate(404.506251938519 31.168353180639542) rotate(347.0877122030563 19.278210084375587 18.746488676024796)"><path d="M9.18 2.68 C9.18 2.68, 9.18 2.68, 9.18 2.68 M9.18 2.68 C9.18 2.68, 9.18 2.68, 9.18 2.68 M1.44 23.77 C9.09 15.73, 15.59 8.6, 21.78 0.38 M1.44 23.77 C9 14.74, 16.64 6.42, 21.78 0.38 M6.16 30.53 C15.9 20.21, 24.33 9.72, 29.12 4.12 M6.16 30.53 C14.87 20.81, 23.21 11.15, 29.12 4.12 M12.2 35.78 C17.81 30.5, 23.09 25.09, 35.16 9.37 M12.2 35.78 C17.73 29.46, 23.17 23.18, 35.16 9.37 M21.52 37.26 C24.88 31.51, 29.09 27.54, 38.58 17.63 M21.52 37.26 C25.09 32.8, 29.2 27.91, 38.58 17.63" stroke="#1e1e1e" stroke-width="1" fill="none"></path><path d="M22.22 0.4 C26.18 0.62, 31.18 3.36, 33.9 6.33 C36.62 9.29, 38.41 14.18, 38.52 18.17 C38.64 22.16, 37.16 27.07, 34.62 30.25 C32.08 33.44, 27.37 36.49, 23.28 37.27 C19.2 38.04, 13.82 36.81, 10.12 34.9 C6.43 33, 2.71 29.44, 1.11 25.85 C-0.49 22.25, -0.84 17.21, 0.52 13.33 C1.88 9.45, 5.64 4.8, 9.27 2.57 C12.9 0.34, 20.07 0.29, 22.3 -0.04 C24.53 -0.38, 22.75 0.19, 22.67 0.54 M17.81 0.33 C21.64 -0.34, 26.89 1.23, 30.26 3.41 C33.62 5.6, 36.93 9.66, 38 13.43 C39.06 17.21, 38.43 22.33, 36.66 26.06 C34.89 29.78, 31.11 33.97, 27.37 35.79 C23.63 37.62, 18.16 38.08, 14.22 37.01 C10.28 35.95, 6.16 32.57, 3.74 29.4 C1.31 26.23, -0.55 21.89, -0.35 18 C-0.15 14.1, 2.02 9.12, 4.95 6.04 C7.89 2.96, 15.24 0.38, 17.26 -0.48 C19.29 -1.35, 17.04 0.49, 17.12 0.85" stroke="#1e1e1e" stroke-width="2" fill="none"></path></g><g stroke-linecap="round" transform="translate(555 200.37352461564365) rotate(0 14 14.5)"><path d="M7.48 1.2 C7.48 1.2, 7.48 1.2, 7.48 1.2 M7.48 1.2 C7.48 1.2, 7.48 1.2, 7.48 1.2 M1.71 20.04 C6.06 15.99, 10.76 9.98, 18.11 1.17 M1.71 20.04 C6.48 14.69, 11.88 8.84, 18.11 1.17 M6.44 26.8 C12.16 20.19, 18.79 13.13, 24.81 5.66 M6.44 26.8 C12.51 19.99, 18.34 12.41, 24.81 5.66 M15.75 28.27 C21.4 23.48, 24.57 17.29, 28.22 13.93 M15.75 28.27 C20.74 22.62, 25.19 16.64, 28.22 13.93" stroke="#1e1e1e" stroke-width="1" fill="none"></path><path d="M17.44 0.62 C20.18 1.08, 23.31 3.5, 25.07 5.94 C26.83 8.37, 28.16 12.14, 28 15.23 C27.84 18.32, 26.2 22.3, 24.13 24.49 C22.05 26.69, 18.56 28.02, 15.56 28.38 C12.57 28.73, 8.68 28.18, 6.13 26.63 C3.59 25.08, 1.09 22.08, 0.31 19.07 C-0.47 16.07, 0.28 11.54, 1.45 8.59 C2.62 5.64, 4.7 2.73, 7.35 1.36 C10 -0.02, 15.58 0.39, 17.37 0.33 C19.17 0.27, 18.15 0.66, 18.12 0.99 M16.02 0.38 C18.8 0.52, 22.52 2.4, 24.47 4.59 C26.41 6.78, 27.66 10.4, 27.7 13.55 C27.74 16.7, 26.55 20.96, 24.7 23.48 C22.86 26.01, 19.47 28.1, 16.63 28.68 C13.78 29.26, 10.27 28.3, 7.62 26.96 C4.96 25.61, 1.95 23.34, 0.72 20.59 C-0.51 17.85, -0.72 13.62, 0.24 10.48 C1.21 7.34, 3.94 3.4, 6.51 1.73 C9.07 0.06, 14.06 0.75, 15.65 0.47 C17.24 0.18, 15.96 -0.2, 16.03 0.04" stroke="#1e1e1e" stroke-width="2" fill="none"></path></g><g stroke-linecap="round"><g transform="translate(570 101.87352461564365) rotate(0 -26.5 11.5)"><path d="M1.03 1.14 C-7.8 5.07, -43.52 20.44, -52.41 24.07 M0.12 0.69 C-8.88 4.26, -44.25 18.58, -53.05 22.52" stroke="#1e1e1e" stroke-width="2" fill="none"></path></g></g><mask></mask><g stroke-linecap="round"><g transform="translate(442.5232906208048 62.95732050057836) rotate(345.2401019370618 12 28)"><path d="M0.59 1.07 C4.53 10.21, 20.66 46.81, 24.68 55.97 M-0.57 0.59 C3.19 10.44, 19.95 48.04, 24.09 57.5" stroke="#1e1e1e" stroke-width="2" fill="none"></path></g></g><mask></mask><g stroke-linecap="round"><g transform="translate(478.10137408126957 165.01941662029753) rotate(350.4703545702447 -21.5 21.5)"><path d="M0.68 -0.03 C-6.46 6.97, -35.06 35.95, -42.29 43.03 M-0.42 -1.09 C-7.71 6.63, -35.72 37.15, -42.86 44.58" stroke="#1e1e1e" stroke-width="2" fill="none"></path></g></g><mask></mask><g stroke-linecap="round"><g transform="translate(507 159.87352461564365) rotate(0 26 21)"><path d="M0.71 0.03 C9.32 6.95, 43.69 34.6, 52.33 41.47 M-0.37 -1 C8.05 6.08, 42.82 35.53, 51.56 42.73" stroke="#1e1e1e" stroke-width="2" fill="none"></path></g></g><mask></mask><g stroke-linecap="round" transform="translate(150 57) rotate(0 56.5 59)"><path d="M28.25 0 C51.54 -0.81, 72.36 1.39, 84.75 0 M28.25 0 C47.86 -0.04, 68.72 1.05, 84.75 0 M84.75 0 C104.14 1.91, 112.04 10.34, 113 28.25 M84.75 0 C101.79 2.17, 113.96 11.02, 113 28.25 M113 28.25 C114.24 46.27, 113.41 63.94, 113 89.75 M113 28.25 C113.08 52.21, 112.56 76.81, 113 89.75 M113 89.75 C111.64 109.23, 105.45 117.44, 84.75 118 M113 89.75 C114.13 110.46, 101.53 117.87, 84.75 118 M84.75 118 C73.22 118.02, 60.52 117.36, 28.25 118 M84.75 118 C62.68 116.89, 42.05 116.61, 28.25 118 M28.25 118 C10.02 116.92, -0.9 109.3, 0 89.75 M28.25 118 C10.1 118.74, -0.96 107.14, 0 89.75 M0 89.75 C0.89 69.82, 0.93 47.31, 0 28.25 M0 89.75 C-0.75 69.94, -0.7 52.73, 0 28.25 M0 28.25 C-1.86 10.25, 10.14 -0.95, 28.25 0 M0 28.25 C0.15 11.53, 9.35 2.2, 28.25 0" stroke="#e03131" stroke-width="2" fill="none"></path></g><g stroke-linecap="round" transform="translate(362 10) rotate(0 138 139.5)"><path d="M32 0 C81.11 -0.05, 127.08 -0.23, 244 0 M32 0 C108.72 1.15, 184.95 2.16, 244 0 M244 0 C263.45 1.45, 277.81 11.81, 276 32 M244 0 C267.34 1.27, 275.8 10.58, 276 32 M276 32 C274.89 103.1, 275.22 173.75, 276 247 M276 32 C275.58 84.11, 276.13 134.93, 276 247 M276 247 C277.47 269.07, 264.79 280.64, 244 279 M276 247 C278.2 266.66, 263.11 276.7, 244 279 M244 279 C162.67 277.71, 80.89 278.57, 32 279 M244 279 C190.82 279.68, 137.94 279.91, 32 279 M32 279 C11.56 278.73, 1.67 268.71, 0 247 M32 279 C10.86 279.96, 0.27 269.82, 0 247 M0 247 C-2.34 202.46, -1.91 155.86, 0 32 M0 247 C0.36 191.03, -0.05 135.32, 0 32 M0 32 C0.57 11.38, 10.73 -0.75, 32 0 M0 32 C2.27 8.39, 8.49 -1.62, 32 0" stroke="#e03131" stroke-width="2" fill="none"></path></g><g stroke-linecap="round"><g transform="translate(231 56) rotate(0 75 -22)"><path d="M0.98 1.11 C26.23 -6.04, 125.46 -35.8, 150.4 -43.41 M0.04 0.65 C25.26 -6.81, 124.64 -37.87, 149.66 -45.22" stroke="#e03131" stroke-width="2" fill="none"></path></g></g><mask></mask><g stroke-linecap="round"><g transform="translate(219 174) rotate(0 75 53)"><path d="M1.14 -0.34 C25.82 17.49, 124.43 88.26, 149.28 105.91 M0.28 -1.56 C25.25 16.56, 126.73 89.37, 151.62 107.39" stroke="#e03131" stroke-width="2" fill="none"></path></g></g><mask></mask></svg>